<svg xmlns="http://www.w3.org/2000/svg" width="32.205" height="27.606" viewBox="0 0 32.205 27.606">
  <path id="heart" d="M16.1,27.6a1.076,1.076,0,0,1-.791-.324L4.1,16.463A5.954,5.954,0,0,1,3.6,16q-.314-.323-1-1.177a15.871,15.871,0,0,1-1.222-1.753,10.923,10.923,0,0,1-.962-2.175A7.843,7.843,0,0,1,0,8.411,8.244,8.244,0,0,1,2.282,2.228,8.645,8.645,0,0,1,8.591,0a7.157,7.157,0,0,1,2.273.386,9.231,9.231,0,0,1,2.157,1.042q1,.656,1.716,1.231A16.934,16.934,0,0,1,16.1,3.882,16.537,16.537,0,0,1,17.469,2.66q.719-.575,1.717-1.231A9.208,9.208,0,0,1,21.343.386,7.16,7.16,0,0,1,23.615,0a8.644,8.644,0,0,1,6.308,2.228A8.244,8.244,0,0,1,32.2,8.411q0,3.972-4.115,8.087l-11.2,10.784a1.076,1.076,0,0,1-.791.324Z" transform="translate(0)" fill="#964b00"/>
</svg>
