<svg id="Group_199" data-name="Group 199" xmlns="http://www.w3.org/2000/svg" width="140" height="43" viewBox="0 0 140 43">
  <path id="Path_31" data-name="Path 31" d="M-5917.956,7612.174a34.985,34.985,0,0,1,14.466-4.618,38.945,38.945,0,0,1,11.735.495c9.98,2.911,9.23,11.122,5.451,15.395s-7.605,3.488-7.605,3.488,6.706,1.442,5.307,8.49c-.41,3.563-4.479,7.722-12.6,8.893a35.747,35.747,0,0,1-4.5.277c-1.224,0-4.2-.136-4.2-.136a1.775,1.775,0,0,1-.612,1.66c-.373.409-3.072,1.821-5-.19-1.011-.409.532-10.584,1.729-17.578a58.671,58.671,0,0,1,2.322-9.911c.205-.451.5-1.868,3.532-1.814s2.484,1.588,2.209,2.722c0,0-1.554,5.5-2.475,10.559s-1.331,9.958-1.331,9.958a35.425,35.425,0,0,0,7.212-.163c3.372-.483,6.648-1.9,7.372-4.152,1.352-4.216-1.59-6.019-4.125-6.3s-4.578.164-3.912-2.884c.443-2.029,1.2-1.852,5-2.15a16.061,16.061,0,0,0,3.673-1.052c4.424-1.723,5.91-5.913,2.555-9.1-1.729-1.64-6.467-2.014-9.208-1.894-3.479.15-9.733,1.337-12.961,3.333-6.708,4.364-5.984-1.03-5.385-1.916A5.819,5.819,0,0,1-5917.956,7612.174Z" transform="translate(5919.679 -7603.98)" fill="#53160a"/>
  <path id="Path_35" data-name="Path 35" d="M-5788.843,7614.941V7615a3.434,3.434,0,0,1,1.149-.3c1.085-.171,3.724-.145,4.22,2.283a3.465,3.465,0,0,1-3.275,4.157c-2,.095-3.748-.094-4.188-2.488a3.393,3.393,0,0,1,2.094-3.653" transform="translate(5923.412 -7603.663)" fill="#53160a"/>
  <path id="Path_34" data-name="Path 34" d="M-5882.852,7627.395a11.148,11.148,0,0,0-2.729,5.613c-.5,2.315-.382,6.352,1.555,8.918a7.615,7.615,0,0,0,8.931,2.53,9.508,9.508,0,0,0,3.7-2.731,10.506,10.506,0,0,0,2.042-4.66l3.418-.46s-.292,4.562.747,6.88c.677,1.367,4.142,3.089,5.023-1.384s4.346-11.36,5.543-10.893c.992.611-.283,2.879-.771,8.608-.33,5.138,4.233,6.024,7.666,4.48,2.945-1.464,3.07-2.3,3.07-2.3a5.8,5.8,0,0,0,6.773,2.763,9.422,9.422,0,0,0,4.566-3.6,5.368,5.368,0,0,0,6.049,3.711,9.927,9.927,0,0,0,5.118-3.346c1.669,1.818,3.905,4.215,10.108,3.241a14.665,14.665,0,0,0,7.371-4.093s1.669,4.666,6.047,4.3,5.448-2.091,5.448-2.091.048,2.172,2.095,2.091,3.229-.226,3.386-2.767a95,95,0,0,1,2.393-16.01c.253-1.72-2.487-1.962-3.826-1.382-.834.434-1.464.289-2.394,5.567s-1.055,6.6-1.055,6.6-2.315,3.185-4.87,3.288a2.748,2.748,0,0,1-2.894-1.889,15.913,15.913,0,0,1-.348-1.555,59.334,59.334,0,0,0,9.5-18.626c1.225-3.643,2.512-15.638-4.684-14.03-3.526.788-6.075,6.1-7.825,12.088h4.682s1.676-7.675,3.513-8.083c2-.119.985,8.538.053,10.795-2.554,7.994-5.429,12.019-5.429,12.019s-.292-1.9.878-10.224c.4-2.394.985-4.507.985-4.507h-4.682a62.3,62.3,0,0,0-2.36,14.127,58.808,58.808,0,0,0,.166,6.047s-3.277,3.677-7.085,4.075-4.528-1.081-4.767-1.412a2.158,2.158,0,0,1-.271-.554s8.057-1.058,9.1-6.935-3.367-7.723-6.969-6.886a9.682,9.682,0,0,0-3.5,1.628s2.367,3.52,2.357,3.525a2.32,2.32,0,0,1,3.522-.456c.522.5.51,2.673-.922,3.907a10.4,10.4,0,0,1-4.2,2.049,8.4,8.4,0,0,1,1.6-5.5c0,.012-2.357-3.525-2.357-3.525a11.559,11.559,0,0,0-3.4,4.489,13.339,13.339,0,0,0-.881,5.465c.016.419.079,1.433.079,1.433a12.007,12.007,0,0,1-1.855,1.75c-.132.109-2.192,1.87-3.512-.216a6.217,6.217,0,0,1-.743-2.489l-4.992,1.165s-1.37,2.542-3.229,2.72c-2.177.271-2.567-2.382-2.188-5.053.96-5.551,5.275-6.822,5.275-6.822s-.032,3.572.142,5.808c.236,1.851.283,2.944,0,3.347.031.032,5.07-1.19,4.976-1.165v-1.474a74.012,74.012,0,0,0,7.6-17.41c1.363-5.341,2.177-13.978-3.672-13.84-5.642.408-7.557,12.942-7.743,13.84l-.149.921s5.227-2.948,5.2-2.934c.771-4.976,1.587-7.609,2.714-7.668,1.3.217,1.278,6.907-.9,13.052-.693,2-3.046,7.668-3.046,7.668s-.125-.933.567-8.464c.031-.338.251-2.479.67-4.588-.009-.014-5.2,2.934-5.2,2.934l-.646,5.562a11.659,11.659,0,0,0-8.693,5.311,14.514,14.514,0,0,0-2.441,8.076s-1.921,2.333-3.428,2.421c-.524-.023-2.067.267-1.186-3.981.929-4.812,3.008-10.86-.164-11.513-3.426-.554-6.43,2.354-8.056,5.078a32.058,32.058,0,0,0-2.472,5.1s-.488-1.383,1.26-7.271c.819-2.526.394-3.7-2.929-2.736-2.519.869-2.992,7.16-2.992,7.16l-2.087.266-1.582.2-5.89,2.333a3.17,3.17,0,0,0,.536.579,6.088,6.088,0,0,1,.677.725,5.947,5.947,0,0,1-.976,2.72c-1.7,2.574-4.4,1.843-5.4-.625-.764-1.894-.635-6.826,1.805-8.579a3.383,3.383,0,0,1,2.016-.435s-.662,3.83,1.338,5.615l5.89-2.333s.278-6.659-6.3-7.854A8.838,8.838,0,0,0-5882.852,7627.395Z" transform="translate(5922.67 -7604.009)" fill="#53160a"/>
</svg>
