<svg id="money" xmlns="http://www.w3.org/2000/svg" width="19.971" height="17.118" viewBox="0 0 19.971 17.118">
  <path id="Path_58" data-name="Path 58" d="M2.25,24.75H22.221v1.426H2.25Z" transform="translate(-2.25 -11.912)"/>
  <path id="Path_59" data-name="Path 59" d="M2.25,29.25H22.221v1.426H2.25Z" transform="translate(-2.25 -13.559)"/>
  <path id="Path_60" data-name="Path 60" d="M26.176,11.25A1.426,1.426,0,1,0,27.6,12.676,1.426,1.426,0,0,0,26.176,11.25Z" transform="translate(-10.485 -6.971)"/>
  <path id="Path_61" data-name="Path 61" d="M16.353,14.706a2.853,2.853,0,1,1,2.853-2.853A2.853,2.853,0,0,1,16.353,14.706Zm0-4.279a1.426,1.426,0,1,0,1.426,1.426A1.426,1.426,0,0,0,16.353,10.426Z" transform="translate(-6.368 -6.147)"/>
  <path id="Path_62" data-name="Path 62" d="M8.176,11.25A1.426,1.426,0,1,0,9.6,12.676,1.426,1.426,0,0,0,8.176,11.25Z" transform="translate(-3.897 -6.971)"/>
  <path id="Path_63" data-name="Path 63" d="M20.794,15.912H3.676A1.43,1.43,0,0,1,2.25,14.485V5.926A1.43,1.43,0,0,1,3.676,4.5H20.794a1.43,1.43,0,0,1,1.426,1.426v8.559A1.428,1.428,0,0,1,20.794,15.912Zm0-9.985H3.676v8.559H20.794Z" transform="translate(-2.25 -4.5)"/>
</svg>
