<svg id="restaurant-fine" xmlns="http://www.w3.org/2000/svg" width="19.971" height="19.971" viewBox="0 0 19.971 19.971">
  <path id="Path_64" data-name="Path 64" d="M28.809,8.669V2.963A.713.713,0,0,0,28.1,2.25H20.963a.713.713,0,0,0-.713.713V8.669a4.282,4.282,0,0,0,3.566,4.215v7.91H20.963v1.426H28.1V20.794H25.243v-7.91A4.282,4.282,0,0,0,28.809,8.669Zm-7.132,0V3.676h5.706V8.669a2.853,2.853,0,0,1-5.706,0Z" transform="translate(-8.838 -2.25)"/>
  <path id="Path_65" data-name="Path 65" d="M9.382,2.25V8.683a2.828,2.828,0,0,1-2.824,2.824A2.857,2.857,0,0,1,3.676,8.683V2.25H2.25V8.683a4.272,4.272,0,0,0,3.566,4.183v9.355H7.243V12.874a4.255,4.255,0,0,0,3.566-4.19V2.25Z" transform="translate(-2.25 -2.25)"/>
  <path id="Path_66" data-name="Path 66" d="M7.875,2.25H9.3V9.368H7.875Z" transform="translate(-4.309 -2.25)"/>
</svg>
