<svg xmlns="http://www.w3.org/2000/svg" width="21" height="54" viewBox="0 0 21 54">
  <g id="Group_360" data-name="Group 360" transform="translate(-666 -1000)">
    <rect id="Rectangle_3687" data-name="Rectangle 3687" width="21" height="54" transform="translate(666 1000)" fill="#d7d0bc"/>
    <path id="fastdown" d="M5.782,6.088a.673.673,0,0,1-.928,0L.231,1.425A.647.647,0,0,1,.035.95a.612.612,0,0,1,.2-.464L.5.2A.64.64,0,0,1,.969,0a.64.64,0,0,1,.469.2l3.88,3.91L9.2.2a.66.66,0,0,1,.939,0L10.4.486a.613.613,0,0,1,.2.464.647.647,0,0,1-.2.475Z" transform="translate(671.184 1023.862)" fill="#fff"/>
  </g>
</svg>
