<svg xmlns="http://www.w3.org/2000/svg" width="33.947" height="35.368" viewBox="0 0 33.947 35.368">
  <path id="shopping-cart-plus" d="M16.816,13.9V8.842H11.763v-3.4h5.053V.4h3.4V5.448h5.053v3.4H20.211V13.9h-3.4ZM10.1,29.053a3.276,3.276,0,0,1,2.408.987,3.334,3.334,0,0,1,0,4.736,3.276,3.276,0,0,1-2.408.987,3.146,3.146,0,0,1-2.368-.987,3.434,3.434,0,0,1,0-4.736A3.146,3.146,0,0,1,10.1,29.053Zm16.855,0a3.37,3.37,0,1,1-2.368.987A3.228,3.228,0,0,1,26.96,29.053ZM10.421,23.6a.349.349,0,0,0,.4.4h19.5v3.4H10.1A3.368,3.368,0,0,1,6.711,24a2.785,2.785,0,0,1,.474-1.579L9.4,18.237l-6-12.79H0V2.132H5.526L7.105,5.448l1.579,3.4,3.789,7.974.237.474H24.473l4.658-8.447,1.9-3.395,2.921,1.658L27.473,18.87a3.177,3.177,0,0,1-3,1.737H11.921l-1.5,2.763v.237Z" transform="translate(0 -0.395)" fill="#fff"/>
</svg>
